<svg width="275" height="266" viewBox="0 0 275 266" fill="none" xmlns="http://www.w3.org/2000/svg">
<path d="M137.5 0C119.443 -2.08278e-07 101.563 3.44015 84.881 10.124C68.1988 16.8079 53.0409 26.6046 40.2728 38.9548C27.5048 51.305 17.3766 65.9668 10.4666 82.1031C3.55654 98.2394 -2.72649e-06 115.534 0 133L137.5 133L137.5 0Z" fill="white"/>
<path fill-rule="evenodd" clip-rule="evenodd" d="M70.8482 65.1914L69.4939 57.3364H57.0342L55.5445 65.1914C54.145 65.5977 51.0481 66.627 49.8563 67.4938L43.0848 62.8891L34.4172 71.963L39.0219 78.4637C38.2093 79.818 36.6112 82.8788 36.7195 84.2872L28.9999 85.5061V97.9658L36.7195 99.3201C36.855 100.313 37.505 102.841 39.0219 105.008L34.4172 111.78L43.0848 120.447L49.8563 116.114C50.8495 116.746 53.3776 118.091 55.5445 118.416L57.0342 126H69.4939L70.8482 118.416C72.2476 118.055 75.4258 117.089 76.9426 116.114L83.037 120.447L92.3818 111.78L87.6417 105.008C88.364 103.564 89.8492 100.404 90.0117 99.3201L97.6636 97.9658V85.5061L90.0117 84.2872C89.6957 83.1812 88.7793 80.4681 87.6417 78.4637L92.0432 71.963L83.037 63.2954L76.9426 67.4938C75.4529 66.7263 72.1483 65.1914 70.8482 65.1914ZM63.3995 107.649C54.5735 107.649 47.4186 100.494 47.4186 91.6682C47.4186 82.8422 54.5735 75.6873 63.3995 75.6873C72.2255 75.6873 79.3804 82.8422 79.3804 91.6682C79.3804 100.494 72.2255 107.649 63.3995 107.649Z" fill="#FE8800"/>
<path fill-rule="evenodd" clip-rule="evenodd" d="M112.113 32.0159L111.248 27H103.292L102.341 32.0159C101.447 32.2753 99.4698 32.9325 98.7088 33.486L94.3848 30.5457L88.8501 36.3399L91.7904 40.4909C91.2715 41.3557 90.2511 43.3102 90.3202 44.2096L85.3909 44.9879V52.9441L90.3202 53.8089C90.4067 54.443 90.8218 56.0573 91.7904 57.441L88.8501 61.765L94.3848 67.2998L98.7088 64.5324C99.343 64.936 100.957 65.795 102.341 66.0026L103.292 70.8455H111.248L112.113 66.0026C113.007 65.7719 115.036 65.1551 116.005 64.5324L119.896 67.2998L125.864 61.765L122.837 57.441C123.298 56.5186 124.246 54.5007 124.35 53.8089L129.236 52.9441V44.9879L124.35 44.2096C124.148 43.5033 123.563 41.7708 122.837 40.4909L125.647 36.3399L119.896 30.8051L116.005 33.486C115.054 32.996 112.943 32.0159 112.113 32.0159ZM107.357 59.1273C101.721 59.1273 97.1523 54.5585 97.1523 48.9226C97.1523 43.2867 101.721 38.7179 107.357 38.7179C112.993 38.7179 117.562 43.2867 117.562 48.9226C117.562 54.5585 112.993 59.1273 107.357 59.1273Z" fill="#FE8800"/>
</svg>
