<svg width="10" height="10" viewBox="0 0 10 10" fill="none" xmlns="http://www.w3.org/2000/svg">
<g id="next (30) 6" clip-path="url(#clip0_29_143)">
<g id="Group">
<g id="Group_2">
<path id="Vector" d="M5.27441 7.58753L9.88692 2.96224C10.038 2.8107 10.0377 2.56535 9.88614 2.41406C9.73459 2.26289 9.48911 2.26328 9.33795 2.41484L4.99998 6.76482L0.662031 2.41468C0.51086 2.26314 0.265529 2.26275 0.113967 2.4139C0.0379906 2.48974 1.89475e-06 2.5891 1.8904e-06 2.68845C1.88607e-06 2.78755 0.0377369 2.88652 0.113186 2.96222L4.72557 7.58753C4.79819 7.66052 4.89701 7.70148 4.99998 7.70148C5.10295 7.70148 5.20166 7.6604 5.27441 7.58753Z" fill="black"/>
</g>
</g>
</g>
<defs>
<clipPath id="clip0_29_143">
<rect width="10" height="10" fill="white" transform="translate(10) rotate(90)"/>
</clipPath>
</defs>
</svg>
