<svg width="11" height="12" viewBox="0 0 11 12" fill="none" xmlns="http://www.w3.org/2000/svg">
<g clip-path="url(#clip0_1_71)">
<path d="M10.1174 7.61086C9.4439 7.61086 8.78264 7.50553 8.15601 7.29845C7.84896 7.19372 7.47149 7.2898 7.28409 7.48227L6.04725 8.41596C4.61287 7.65028 3.72931 6.76702 2.9741 5.3434L3.88031 4.13879C4.11575 3.90366 4.2002 3.5602 4.09902 3.23794C3.89105 2.60801 3.7854 1.94707 3.7854 1.27332C3.78543 0.786596 3.38946 0.390625 2.90277 0.390625H0.882664C0.395971 0.390625 0 0.786596 0 1.27329C0 6.85207 4.53859 11.3906 10.1174 11.3906C10.6041 11.3906 11 10.9947 11 10.508V8.4935C11 8.00684 10.604 7.61086 10.1174 7.61086Z" fill="#0E1B96"/>
</g>
<defs>
<clipPath id="clip0_1_71">
<rect width="11" height="11" fill="white" transform="translate(0 0.390625)"/>
</clipPath>
</defs>
</svg>
