<svg width="56" height="57" viewBox="0 0 56 57" fill="none" xmlns="http://www.w3.org/2000/svg">
<path d="M0.853008 56.3853V0.38525H25.333C31.413 0.38525 36.7463 1.55858 41.333 3.90525C45.9197 6.25192 49.493 9.50525 52.053 13.6653C54.613 17.8253 55.893 22.7319 55.893 28.3853C55.893 33.9853 54.613 38.8919 52.053 43.1053C49.493 47.2653 45.9197 50.5186 41.333 52.8653C36.7463 55.2119 31.413 56.3853 25.333 56.3853H0.853008ZM11.253 47.5853H24.853C29.0663 47.5853 32.693 46.7853 35.733 45.1853C38.8263 43.5853 41.1997 41.3453 42.853 38.4653C44.5597 35.5853 45.413 32.2253 45.413 28.3853C45.413 24.4919 44.5597 21.1319 42.853 18.3053C41.1997 15.4253 38.8263 13.1853 35.733 11.5853C32.693 9.98525 29.0663 9.18525 24.853 9.18525H11.253V47.5853Z" fill="#0E1B96"/>
</svg>
