<svg width="470" height="147" viewBox="0 0 470 147" fill="none" xmlns="http://www.w3.org/2000/svg">
<path d="M69.4022 146.391C57.2688 146.391 46.2022 143.924 36.2022 138.991C26.3355 134.057 18.2688 127.191 12.0022 118.391C5.73551 109.591 2.00217 99.5906 0.802173 88.3906H25.0022C26.4688 95.324 29.2688 101.391 33.4022 106.591C37.5355 111.791 42.6688 115.791 48.8022 118.591C55.0688 121.391 62.0022 122.791 69.6022 122.791C78.4022 122.791 86.2688 120.791 93.2022 116.791C100.136 112.791 105.602 107.191 109.602 99.9906C113.736 92.7906 115.936 84.5906 116.202 75.3906H65.0022V71.3906H116.202C115.936 62.1906 113.736 53.9906 109.602 46.7906C105.602 39.4573 100.136 33.7906 93.2022 29.7906C86.2688 25.7906 78.4022 23.7906 69.6022 23.7906C62.0022 23.7906 55.0688 25.2573 48.8022 28.1906C42.6688 30.9906 37.5355 34.9906 33.4022 40.1906C29.2688 45.3906 26.4688 51.4573 25.0022 58.3906H0.802173C2.00217 47.0573 5.73551 37.0573 12.0022 28.3906C18.2688 19.5906 26.3355 12.724 36.2022 7.79062C46.2022 2.85729 57.2688 0.390618 69.4022 0.390618C83.0022 0.390618 95.2022 3.52395 106.002 9.79062C116.936 16.0573 125.402 24.7239 131.402 35.7906C137.536 46.8573 140.602 59.3906 140.602 73.3906C140.602 87.3906 137.536 99.924 131.402 110.991C125.269 122.057 116.802 130.724 106.002 136.991C95.2022 143.257 83.0022 146.391 69.4022 146.391ZM234.81 146.391C220.943 146.391 208.543 143.257 197.61 136.991C186.677 130.724 178.077 122.057 171.81 110.991C165.677 99.924 162.61 87.3906 162.61 73.3906C162.61 59.3906 165.677 46.8573 171.81 35.7906C178.077 24.7239 186.677 16.0573 197.61 9.79062C208.543 3.52395 220.943 0.390618 234.81 0.390618C246.81 0.390618 257.743 2.92395 267.61 7.99062C277.61 12.9239 285.677 19.8573 291.81 28.7906C297.943 37.724 301.61 47.924 302.81 59.3906H278.61C277.277 52.1906 274.543 45.924 270.41 40.5906C266.41 35.2573 261.343 31.124 255.21 28.1906C249.077 25.2573 242.21 23.7906 234.61 23.7906C225.41 23.7906 217.21 25.9239 210.01 30.1906C202.81 34.324 197.21 40.1906 193.21 47.7906C189.21 55.2573 187.21 63.7906 187.21 73.3906C187.21 82.9906 189.21 91.524 193.21 98.9906C197.21 106.457 202.81 112.324 210.01 116.591C217.21 120.724 225.41 122.791 234.61 122.791C242.21 122.791 249.077 121.391 255.21 118.591C261.343 115.657 266.41 111.524 270.41 106.191C274.543 100.857 277.277 94.5906 278.61 87.3906H302.81C301.61 98.8573 297.943 109.057 291.81 117.991C285.677 126.924 277.61 133.924 267.61 138.991C257.743 143.924 246.81 146.391 234.81 146.391ZM396.157 146.391C382.424 146.391 369.957 143.257 358.757 136.991C347.69 130.591 338.957 121.857 332.557 110.791C326.29 99.5906 323.157 87.124 323.157 73.3906C323.157 59.6573 326.29 47.2573 332.557 36.1906C338.957 24.9906 347.69 16.2573 358.757 9.99061C369.957 3.59062 382.424 0.390618 396.157 0.390618C409.89 0.390618 422.29 3.59062 433.357 9.99061C444.557 16.2573 453.29 24.9906 459.557 36.1906C465.957 47.2573 469.157 59.6573 469.157 73.3906C469.157 87.124 465.957 99.5906 459.557 110.791C453.29 121.857 444.557 130.591 433.357 136.991C422.29 143.257 409.89 146.391 396.157 146.391ZM396.157 122.791C405.357 122.791 413.624 120.657 420.957 116.391C428.424 112.124 434.224 106.257 438.357 98.7906C442.624 91.1906 444.757 82.724 444.757 73.3906C444.757 64.0573 442.624 55.6573 438.357 48.1906C434.224 40.5906 428.424 34.6573 420.957 30.3906C413.624 25.9906 405.357 23.7906 396.157 23.7906C386.957 23.7906 378.69 25.9906 371.357 30.3906C364.024 34.6573 358.224 40.5906 353.957 48.1906C349.824 55.6573 347.757 64.0573 347.757 73.3906C347.757 82.724 349.824 91.1906 353.957 98.7906C358.224 106.257 364.024 112.124 371.357 116.391C378.69 120.657 386.957 122.791 396.157 122.791Z" fill="white"/>
</svg>
