<svg width="11" height="12" viewBox="0 0 11 12" fill="none" xmlns="http://www.w3.org/2000/svg">
<g id="email (24) 1">
<g id="Group">
<g id="Group_2">
<path id="Vector" d="M7.29163 5.94704L11 8.29141V3.50366L7.29163 5.94704Z" fill="#0E1B96"/>
</g>
</g>
<g id="Group_3">
<g id="Group_4">
<path id="Vector_2" d="M0 3.50366V8.29141L3.70837 5.94704L0 3.50366Z" fill="#0E1B96"/>
</g>
</g>
<g id="Group_5">
<g id="Group_6">
<path id="Vector_3" d="M10.3125 2.10938H0.687505C0.344442 2.10938 0.0721924 2.36513 0.0206299 2.69444L5.50001 6.3045L10.9794 2.69444C10.9278 2.36513 10.6556 2.10938 10.3125 2.10938Z" fill="#0E1B96"/>
</g>
</g>
<g id="Group_7">
<g id="Group_8">
<path id="Vector_4" d="M6.66185 6.36397L5.68904 7.00472C5.63129 7.04253 5.56598 7.06109 5.49998 7.06109C5.43397 7.06109 5.36866 7.04253 5.31091 7.00472L4.3381 6.36328L0.0219727 9.09334C0.0749102 9.41991 0.345785 9.67359 0.687473 9.67359H10.3125C10.6542 9.67359 10.925 9.41991 10.978 9.09334L6.66185 6.36397Z" fill="#0E1B96"/>
</g>
</g>
</g>
</svg>
