<svg width="53" height="69" viewBox="0 0 53 69" fill="none" xmlns="http://www.w3.org/2000/svg">
<path id="Union" d="M46.2994 39.4137L42.8854 41.4981L42.9539 41.6104L43.0297 41.7179L46.2994 39.4137ZM6.6163 39.3955L9.8828 41.7042L9.93791 41.6262L9.98923 41.5457L6.6163 39.3955ZM26.8804 7.60803L30.2944 5.52363L26.9536 0.0519552L23.5075 5.45783L26.8804 7.60803ZM43.0297 41.7179C44.2692 43.4768 44.9028 45.3744 44.9028 47.318H52.9028C52.9028 43.5504 51.6536 40.0677 49.5691 37.1096L43.0297 41.7179ZM44.9028 47.318C44.9028 50.4481 43.2263 53.582 39.9218 56.0688C36.6155 58.5569 31.8662 60.2134 26.4514 60.2134V68.2134C33.4361 68.2134 39.9126 66.0879 44.7321 62.461C49.5534 58.8329 52.9028 53.5191 52.9028 47.318H44.9028ZM26.4514 60.2134C21.0366 60.2134 16.2873 58.5569 12.981 56.0688C9.67648 53.582 8 50.4481 8 47.318H0C0 53.5191 3.34944 58.8329 8.17069 62.461C12.9902 66.0879 19.4667 68.2134 26.4514 68.2134V60.2134ZM8 47.318C8 45.3695 8.63685 43.467 9.8828 41.7042L3.34981 37.0868C1.2557 40.0497 0 43.5406 0 47.318H8ZM9.98923 41.5457L30.2533 9.75823L23.5075 5.45783L3.24337 37.2453L9.98923 41.5457ZM23.4664 9.69244L42.8854 41.4981L49.7134 37.3293L30.2944 5.52363L23.4664 9.69244Z" fill="#0E1B96"/>
</svg>
