<svg width="234" height="115" viewBox="0 0 234 115" fill="none" xmlns="http://www.w3.org/2000/svg">
<path d="M36.384 97.44C30.56 97.44 25.248 96.256 20.448 93.888C15.712 91.52 11.84 88.224 8.832 84C5.824 79.776 4.032 74.976 3.456 69.6H15.072C15.776 72.928 17.12 75.84 19.104 78.336C21.088 80.832 23.552 82.752 26.496 84.096C29.504 85.44 32.832 86.112 36.48 86.112C40.704 86.112 44.48 85.152 47.808 83.232C51.136 81.312 53.76 78.624 55.68 75.168C57.664 71.712 58.72 67.776 58.848 63.36H34.272V61.44H58.848C58.72 57.024 57.664 53.088 55.68 49.632C53.76 46.112 51.136 43.392 47.808 41.472C44.48 39.552 40.704 38.592 36.48 38.592C32.832 38.592 29.504 39.296 26.496 40.704C23.552 42.048 21.088 43.968 19.104 46.464C17.12 48.96 15.776 51.872 15.072 55.2H3.456C4.032 49.76 5.824 44.96 8.832 40.8C11.84 36.576 15.712 33.28 20.448 30.912C25.248 28.544 30.56 27.36 36.384 27.36C42.912 27.36 48.768 28.864 53.952 31.872C59.2 34.88 63.264 39.04 66.144 44.352C69.088 49.664 70.56 55.68 70.56 62.4C70.56 69.12 69.088 75.136 66.144 80.448C63.2 85.76 59.136 89.92 53.952 92.928C48.768 95.936 42.912 97.44 36.384 97.44ZM115.78 97.44C109.124 97.44 103.172 95.936 97.9238 92.928C92.6758 89.92 88.5478 85.76 85.5398 80.448C82.5958 75.136 81.1238 69.12 81.1238 62.4C81.1238 55.68 82.5958 49.664 85.5398 44.352C88.5478 39.04 92.6758 34.88 97.9238 31.872C103.172 28.864 109.124 27.36 115.78 27.36C121.54 27.36 126.788 28.576 131.524 31.008C136.324 33.376 140.196 36.704 143.14 40.992C146.084 45.28 147.844 50.176 148.42 55.68H136.804C136.164 52.224 134.852 49.216 132.868 46.656C130.948 44.096 128.516 42.112 125.572 40.704C122.628 39.296 119.332 38.592 115.684 38.592C111.268 38.592 107.332 39.616 103.876 41.664C100.42 43.648 97.7318 46.464 95.8118 50.112C93.8918 53.696 92.9318 57.792 92.9318 62.4C92.9318 67.008 93.8918 71.104 95.8118 74.688C97.7318 78.272 100.42 81.088 103.876 83.136C107.332 85.12 111.268 86.112 115.684 86.112C119.332 86.112 122.628 85.44 125.572 84.096C128.516 82.688 130.948 80.704 132.868 78.144C134.852 75.584 136.164 72.576 136.804 69.12H148.42C147.844 74.624 146.084 79.52 143.14 83.808C140.196 88.096 136.324 91.456 131.524 93.888C126.788 96.256 121.54 97.44 115.78 97.44ZM193.226 97.44C186.634 97.44 180.65 95.936 175.274 92.928C169.962 89.856 165.77 85.664 162.698 80.352C159.69 74.976 158.186 68.992 158.186 62.4C158.186 55.808 159.69 49.856 162.698 44.544C165.77 39.168 169.962 34.976 175.274 31.968C180.65 28.896 186.634 27.36 193.226 27.36C199.818 27.36 205.77 28.896 211.082 31.968C216.458 34.976 220.65 39.168 223.658 44.544C226.73 49.856 228.266 55.808 228.266 62.4C228.266 68.992 226.73 74.976 223.658 80.352C220.65 85.664 216.458 89.856 211.082 92.928C205.77 95.936 199.818 97.44 193.226 97.44ZM193.226 86.112C197.642 86.112 201.61 85.088 205.13 83.04C208.714 80.992 211.498 78.176 213.482 74.592C215.53 70.944 216.554 66.88 216.554 62.4C216.554 57.92 215.53 53.888 213.482 50.304C211.498 46.656 208.714 43.808 205.13 41.76C201.61 39.648 197.642 38.592 193.226 38.592C188.81 38.592 184.842 39.648 181.322 41.76C177.802 43.808 175.018 46.656 172.97 50.304C170.986 53.888 169.994 57.92 169.994 62.4C169.994 66.88 170.986 70.944 172.97 74.592C175.018 78.176 177.802 80.992 181.322 83.04C184.842 85.088 188.81 86.112 193.226 86.112Z" fill="#0E1B96"/>
<line x1="33" y1="63" x2="62" y2="63" stroke="#0E1B96" stroke-width="10"/>
</svg>
