<svg width="25" height="24" viewBox="0 0 25 24" fill="none" xmlns="http://www.w3.org/2000/svg">
<path d="M23.1862 21.5758L23.1861 21.5757L17.6896 16.0834C19.0257 14.4955 19.8349 12.4497 19.8349 10.2123C19.8349 5.17759 15.7393 1.08649 10.7091 1.08649C5.67894 1.08649 1.58331 5.17759 1.58331 10.2123C1.58331 15.247 5.67894 19.3381 10.7091 19.3381C12.9423 19.3381 14.992 18.5288 16.5803 17.1927L22.0726 22.685C22.2259 22.8383 22.4256 22.9155 22.6294 22.9155C22.8332 22.9155 23.0328 22.8383 23.1862 22.685C23.4935 22.3777 23.4935 21.8831 23.1862 21.5758ZM18.2647 10.2123C18.2647 14.3767 14.8735 17.7679 10.7091 17.7679C6.54468 17.7679 3.15347 14.3767 3.15347 10.2123C3.15347 6.04786 6.54468 2.65665 10.7091 2.65665C14.8736 2.65665 18.2647 6.04358 18.2647 10.2123Z" fill="black" stroke="black" stroke-width="0.5"/>
</svg>
