<svg width="61" height="64" viewBox="0 0 61 64" fill="none" xmlns="http://www.w3.org/2000/svg">
<g id="Group 324">
<rect id="Rectangle 113" x="17.1173" y="19.2591" width="26.6709" height="24.2347" stroke="#0E1B96" stroke-width="5"/>
<path id="Line 13" d="M25.1624 27.1414H35.0749" stroke="#0E1B96" stroke-width="5" stroke-linecap="round"/>
<ellipse id="Ellipse 115" cx="4.575" cy="15.4332" rx="4.575" ry="4.68335" fill="#0E1B96"/>
<ellipse id="Ellipse 116" cx="56.425" cy="15.4332" rx="4.575" ry="4.68335" fill="#0E1B96"/>
<ellipse id="Ellipse 117" cx="56.425" cy="48.2166" rx="4.575" ry="4.68335" fill="#0E1B96"/>
<g id="Vector 8">
<path d="M11.8185 22.8485L6.48105 19.7262L8.3873 15.4332L11.8185 17.3846V22.8485Z" fill="#0E1B96"/>
<path d="M49.1811 17.3846L52.2311 15.4332L54.8998 18.9457L49.1811 22.8485V17.3846Z" fill="#0E1B96"/>
<path d="M49.1811 46.6555V41.1916L54.8998 44.7041L52.2311 48.6069L49.1811 46.6555Z" fill="#0E1B96"/>
<path d="M28.2123 56.0222V48.6069H32.7873V56.0222H28.2123Z" fill="#0E1B96"/>
<path d="M28.2123 15.0429V6.45673H32.7873V15.0429H28.2123Z" fill="#0E1B96"/>
<path d="M11.8185 40.8013L6.8623 44.3138L8.76855 48.9972L11.8185 46.6555V40.8013Z" fill="#0E1B96"/>
</g>
<ellipse id="Ellipse 118" cx="4.575" cy="48.2166" rx="4.575" ry="4.68335" fill="#0E1B96"/>
<ellipse id="Ellipse 119" cx="30.4999" cy="58.364" rx="4.575" ry="4.68335" fill="#0E1B96"/>
<ellipse id="Ellipse 120" cx="30.4999" cy="5.28592" rx="4.575" ry="4.68335" fill="#0E1B96"/>
</g>
</svg>
