<svg width="56" height="50" viewBox="0 0 56 50" fill="none" xmlns="http://www.w3.org/2000/svg">
<path id="Subtract" fill-rule="evenodd" clip-rule="evenodd" d="M21.5833 14.2458L36.4583 0L41.125 3.91061L32.375 12.5698H53.6667V18.4358H39.0833L56 34.0782L52.2083 37.9888L41.125 28.4916V48.6034H34.125V36.5922L19.25 50L15.1667 46.0894L24.7917 36.5922H1.45833V31.7039L16.9167 31.5642L0 16.2011L4.66667 12.5698L15.1667 21.5084V1.39665H21.5833V14.2458ZM28 33.5196C32.9131 33.5196 36.8959 29.7052 36.8959 25C36.8959 20.2948 32.9131 16.4804 28 16.4804C23.087 16.4804 19.1042 20.2948 19.1042 25C19.1042 29.7052 23.087 33.5196 28 33.5196Z" fill="#0E1B96"/>
</svg>
